<svg width="18" height="18" viewBox="0 0 18 18" fill="none" xmlns="http://www.w3.org/2000/svg">
<path fill-rule="evenodd" clip-rule="evenodd" d="M6.75 1.50003C6.33579 1.50003 6 1.83582 6 2.25003C6 2.66424 6.33579 3.00003 6.75 3.00003H12.75C13.5784 3.00003 14.25 3.6716 14.25 4.50003V12C14.25 12.4142 14.5858 12.75 15 12.75C15.4142 12.75 15.75 12.4142 15.75 12V4.50003C15.75 2.84318 14.4069 1.50003 12.75 1.50003H6.75ZM4.5 4.50003C3.25736 4.50003 2.25 5.50739 2.25 6.75003V14.25C2.25 15.4927 3.25736 16.5 4.5 16.5H10.5C11.7426 16.5 12.75 15.4927 12.75 14.25V6.75003C12.75 5.50739 11.7426 4.50003 10.5 4.50003H4.5ZM3.75 6.75003C3.75 6.33582 4.08579 6.00003 4.5 6.00003H10.5C10.9142 6.00003 11.25 6.33582 11.25 6.75003V14.25C11.25 14.6642 10.9142 15 10.5 15H4.5C4.08579 15 3.75 14.6642 3.75 14.25V6.75003Z" fill="white"/>
</svg>
