<svg width="inherit" height="inherit" viewBox="0 0 18 18" fill="none" xmlns="http://www.w3.org/2000/svg">
<path fill-rule="evenodd" clip-rule="evenodd" d="M0 0H18V18H0V0ZM4.143 5.62485C4.25384 5.72476 4.31045 5.87148 4.29543 6.01992V11.3645C4.32832 11.5573 4.26754 11.7543 4.13171 11.895L2.86151 13.4358V13.639H6.46324V13.4358L5.19304 11.895C5.05621 11.7545 4.99167 11.5589 5.01803 11.3645V6.74231L8.17942 13.639H8.54636L11.2618 6.74231V12.2393C11.2618 12.3861 11.2618 12.4143 11.1658 12.5102L10.1892 13.4584V13.6615H14.9312V13.4584L13.9885 12.5328C13.9052 12.4694 13.864 12.3651 13.8812 12.2619V5.46119C13.864 5.35799 13.9052 5.25372 13.9885 5.19029L14.9538 4.26471V4.06154H11.6118L9.22945 10.0044L6.51969 4.06154H3.01394V4.26471L4.143 5.62485Z" fill="white"/>
</svg>
