<svg width="inherit" height="inherit" viewBox="0 0 19 16" fill="none" xmlns="http://www.w3.org/2000/svg">
<path d="M1.16484 6.96805L12.4825 2.21897C13.5997 1.72428 17.3884 0.141253 17.3884 0.141253C17.3884 0.141253 19.1371 -0.55132 18.9914 1.13064C18.9428 1.82322 18.5542 4.24722 18.1656 6.86911L16.9513 14.6358C16.9513 14.6358 16.8541 15.7736 16.0284 15.9715C15.2026 16.1694 13.8426 15.2789 13.5997 15.0811C13.4054 14.9326 9.95667 12.7065 8.69376 11.6182C8.35374 11.3214 7.96515 10.7277 8.74233 10.0352C10.491 8.40266 12.5797 6.37441 13.8426 5.08821C14.4255 4.49457 15.0083 3.10942 12.5797 4.79139L5.73077 9.49099C5.73077 9.49099 4.95359 9.98569 3.49638 9.54046C2.03917 9.09524 0.33909 8.5016 0.33909 8.5016C0.33909 8.5016 -0.826678 7.75956 1.16484 6.96805Z" fill="white"/>
</svg>
